<?xml version="1.0" encoding="utf-8"?>
<!-- Generator: Adobe Illustrator 21.0.0, SVG Export Plug-In . SVG Version: 6.00 Build 0)  -->
<svg version="1.1" id="Camada_1" xmlns="http://www.w3.org/2000/svg" xmlns:xlink="http://www.w3.org/1999/xlink" x="0px" y="0px"
	 viewBox="0 0 512 512" style="enable-background:new 0 0 512 512;" xml:space="preserve">
<style type="text/css">
	.st0{fill:#4CD137;}
</style>
<path class="st0" d="M15,481h482c8.3,0,15-6.7,15-15c0-24.4,0-394.6,0-420c0-8.3-6.7-15-15-15H15C6.7,31,0,37.7,0,46v420
	C0,474.3,6.7,481,15,481z M30,61h452v90H30V61z M30,181h452v270H30V181z"/>
<path class="st0" d="M176.6,275.4c-5.9-5.9-15.4-5.9-21.2,0l-60,60c-5.9,5.9-5.9,15.4,0,21.2l60,60c5.9,5.9,15.4,5.9,21.2,0
	s5.9-15.4,0-21.2L127.2,346l49.4-49.4C182.5,290.8,182.5,281.3,176.6,275.4z"/>
<path class="st0" d="M292.7,272.6c-7.4-3.7-16.4-0.7-20.1,6.7l-60,120c-3.7,7.4-0.7,16.4,6.7,20.1c7.4,3.7,16.4,0.7,20.1-6.7l60-120
	C303.1,285.3,300.1,276.3,292.7,272.6z"/>
<path class="st0" d="M356.6,275.4c-5.9-5.9-15.4-5.9-21.2,0c-5.9,5.9-5.9,15.4,0,21.2l49.4,49.4l-49.4,49.4
	c-5.9,5.9-5.9,15.4,0,21.2c5.9,5.9,15.4,5.9,21.2,0l60-60c5.9-5.9,5.9-15.4,0-21.2L356.6,275.4z"/>
<path class="st0" d="M436,211H76c-8.3,0-15,6.7-15,15s6.7,15,15,15h360c8.3,0,15-6.7,15-15S444.3,211,436,211z"/>
<path class="st0" d="M331,106c0,8.3-6.7,15-15,15s-15-6.7-15-15s6.7-15,15-15S331,97.7,331,106z"/>
<path class="st0" d="M391,106c0,8.3-6.7,15-15,15s-15-6.7-15-15s6.7-15,15-15S391,97.7,391,106z"/>
<path class="st0" d="M451,106c0,8.3-6.7,15-15,15s-15-6.7-15-15s6.7-15,15-15S451,97.7,451,106z"/>
<path class="st0" d="M226,91H76c-8.3,0-15,6.7-15,15s6.7,15,15,15h150c8.3,0,15-6.7,15-15S234.3,91,226,91z"/>
</svg>
