<?xml version="1.0" encoding="utf-8"?>
<!-- Generator: Adobe Illustrator 21.0.0, SVG Export Plug-In . SVG Version: 6.00 Build 0)  -->
<svg version="1.1" id="Camada_1" xmlns="http://www.w3.org/2000/svg" xmlns:xlink="http://www.w3.org/1999/xlink" x="0px" y="0px"
	 viewBox="0 0 512 512" style="enable-background:new 0 0 512 512;" xml:space="preserve">
<style type="text/css">
	.st0{fill:#4CD137;}
</style>
<path class="st0" d="M362.1,241.5c6.2,17.5,22.9,30,42.4,30h62c24.8,0,45-20.2,45-45s-20.2-45-45-45h-62c-19.6,0-36.2,12.5-42.4,30
	h-32.6v-166c0-24.8-20.2-45-45-45h-240c-24.8,0-45,20.2-45,45v422c0,24.8,20.2,45,45,45h240c24.8,0,45-20.2,45-45v-76h32.6
	c6.2,17.5,22.9,30,42.4,30h62c24.8,0,45-20.2,45-45s-20.2-45-45-45h-62c-19.6,0-36.2,12.5-42.4,30h-32.6v-120H362.1z M404.5,211.5
	h62c8.3,0,15,6.7,15,15s-6.7,15-15,15h-62c-8.3,0-15-6.7-15-15S396.2,211.5,404.5,211.5z M299.5,467.5c0,8.3-6.7,15-15,15h-240
	c-8.3,0-15-6.7-15-15v-15h270V467.5z M299.5,211.5h-31.1c-7.3-50.8-51.1-90-103.9-90c-57.9,0-105,47.1-105,105
	c0,57.8,47,105,105,105c52.5,0,96.6-38.8,103.9-90h31.1v120h-15c-8.3,0-15,6.7-15,15s6.7,15,15,15h15v31h-270v-332h270V211.5z
	 M164.5,271.5c15.2,0,29.2,7.7,37.4,20c-11,6.4-23.8,10-37.4,10s-26.4-3.7-37.4-10C135.3,279.2,149.3,271.5,164.5,271.5z
	 M149.5,226.5c0-8.3,6.7-15,15-15s15,6.7,15,15s-6.7,15-15,15S149.5,234.8,149.5,226.5z M201.9,251.5c4.8-7.2,7.6-15.8,7.6-25
	c0-24.8-20.2-45-45-45s-45,20.2-45,45c0,9.3,2.8,17.9,7.6,25c-8.8,5-16.5,11.8-22.6,20c-9.4-12.5-15-28.1-15-45
	c0-41.4,33.6-75,75-75s75,33.6,75,75c0,16.9-5.6,32.4-15,45C218.3,263.3,210.6,256.6,201.9,251.5z M299.5,60.5h-270v-15
	c0-8.3,6.7-15,15-15h240c8.3,0,15,6.7,15,15V60.5z M404.5,361.5h62c8.3,0,15,6.7,15,15s-6.7,15-15,15h-62c-8.3,0-15-6.7-15-15
	S396.2,361.5,404.5,361.5z"/>
<path class="st0" d="M180,376c0,8.3-6.7,15-15,15s-15-6.7-15-15s6.7-15,15-15S180,367.7,180,376z"/>
<path class="st0" d="M239.5,376.5c0,8.3-6.7,15-15,15s-15-6.7-15-15s6.7-15,15-15S239.5,368.2,239.5,376.5z"/>
<path class="st0" d="M120,376c0,8.3-6.7,15-15,15s-15-6.7-15-15s6.7-15,15-15S120,367.7,120,376z"/>
</svg>
