<?xml version="1.0" encoding="utf-8"?>
<!-- Generator: Adobe Illustrator 21.0.0, SVG Export Plug-In . SVG Version: 6.00 Build 0)  -->
<svg version="1.1" id="Capa_1" xmlns="http://www.w3.org/2000/svg" xmlns:xlink="http://www.w3.org/1999/xlink" x="0px" y="0px"
	 viewBox="0 0 512 512" style="enable-background:new 0 0 512 512;" xml:space="preserve">
<style type="text/css">
	.st0{fill:#4CD137;}
</style>
<g>
	<g>
		<rect x="247.5" y="426.7" class="st0" width="17.1" height="17.1"/>
	</g>
</g>
<g>
	<g>
		<path class="st0" d="M503.5,443.7h-8.5V136.5c0-18.9-15.3-34.1-34.1-34.1h-51.2V34.1c0-18.9-15.3-34.1-34.1-34.1H136.5
			c-18.9,0-34.1,15.3-34.1,34.1v68.3H51.2c-18.9,0-34.1,15.3-34.1,34.1v307.2H8.5c-4.7,0-8.5,3.8-8.5,8.5v25.6
			C0,496.7,15.3,512,34.1,512h443.7c18.9,0,34.1-15.3,34.1-34.1v-25.6C512,447.6,508.2,443.7,503.5,443.7z M119.5,34.1
			c0-9.4,7.6-17.1,17.1-17.1h238.9c9.4,0,17.1,7.6,17.1,17.1v34.1H119.5V34.1z M119.5,85.3h273.1v247.5c0,9.4-7.6,17.1-17.1,17.1
			H136.5c-9.4,0-17.1-7.6-17.1-17.1V85.3z M136.5,366.9h238.9c18.9,0,34.1-15.3,34.1-34.1V153.6h34.1v238.9H68.3V153.6h34.1v179.2
			C102.4,351.7,117.7,366.9,136.5,366.9z M34.1,136.5c0-9.4,7.6-17.1,17.1-17.1h51.2v17.1H59.7c-4.7,0-8.5,3.8-8.5,8.5v256
			c0,4.7,3.8,8.5,8.5,8.5h392.5c4.7,0,8.5-3.8,8.5-8.5v-256c0-4.7-3.8-8.5-8.5-8.5h-42.7v-17.1h51.2c9.4,0,17.1,7.6,17.1,17.1v307.2
			H332.8c-2.3,0-4.4,0.9-6,2.5l-14.6,14.6H199.8l-14.6-14.6c-1.6-1.6-3.8-2.5-6-2.5H34.1V136.5z M494.9,477.9
			c0,9.4-7.6,17.1-17.1,17.1H34.1c-9.4,0-17.1-7.6-17.1-17.1v-17.1h158.6l14.6,14.6c1.6,1.6,3.8,2.5,6,2.5h119.5
			c2.3,0,4.4-0.9,6-2.5l14.6-14.6h158.6V477.9z"/>
	</g>
</g>
<g>
	<g>
		<rect x="145.1" y="273.1" class="st0" width="221.9" height="17.1"/>
	</g>
</g>
<g>
	<g>
		<rect x="145.1" y="307.2" class="st0" width="204.8" height="17.1"/>
	</g>
</g>
<g>
	<g>
		<rect x="196.3" y="238.9" class="st0" width="170.7" height="17.1"/>
	</g>
</g>
<g>
	<g>
		<rect x="136.5" y="34.1" class="st0" width="17.1" height="17.1"/>
	</g>
</g>
<g>
	<g>
		<rect x="170.7" y="34.1" class="st0" width="17.1" height="17.1"/>
	</g>
</g>
<g>
	<g>
		<rect x="204.8" y="34.1" class="st0" width="17.1" height="17.1"/>
	</g>
</g>
<g>
	<g>
		<rect x="162.1" y="238.9" class="st0" width="17.1" height="17.1"/>
	</g>
</g>
<g>
	<g>
		<path class="st0" d="M227,143.4l-10.2-13.7l-34.1,25.6c-3.8,2.8-4.5,8.2-1.7,11.9c0.5,0.6,1.1,1.2,1.7,1.7l34.1,25.6l10.2-13.7
			l-25-18.8L227,143.4z"/>
	</g>
</g>
<g>
	<g>
		<path class="st0" d="M331.1,157c-0.5-0.6-1.1-1.2-1.7-1.7l-34.1-25.6L285,143.4l25,18.8l-25,18.8l10.2,13.7l34.1-25.6
			C333.2,166.1,333.9,160.8,331.1,157z"/>
	</g>
</g>
<g>
	<g>
		
			<rect x="210.1" y="153.6" transform="matrix(0.3715 -0.9284 0.9284 0.3715 10.3537 339.5886)" class="st0" width="91.9" height="17.1"/>
	</g>
</g>
</svg>
